<svg width="53" height="62" viewBox="0 0 53 62" fill="none" xmlns="http://www.w3.org/2000/svg">
<path d="M9.16406 12.5V18.6406H13.8984V21.9922H9.16406V37.7188C9.16406 38.7344 9.375 39.5 9.79688 40.0156C10.2188 40.5156 10.9375 40.7656 11.9531 40.7656C12.4531 40.7656 13.1406 40.6719 14.0156 40.4844V44C12.875 44.3125 11.7656 44.4688 10.6875 44.4688C8.75 44.4688 7.28906 43.8828 6.30469 42.7109C5.32031 41.5391 4.82812 39.875 4.82812 37.7188V21.9922H0.210938V18.6406H4.82812V12.5H9.16406ZM19.6641 44V9.875H30.8203C34.5234 9.875 37.3047 10.6406 39.1641 12.1719C41.0391 13.7031 41.9766 15.9688 41.9766 18.9688C41.9766 20.5625 41.5234 21.9766 40.6172 23.2109C39.7109 24.4297 38.4766 25.375 36.9141 26.0469C38.7578 26.5625 40.2109 27.5469 41.2734 29C42.3516 30.4375 42.8906 32.1562 42.8906 34.1562C42.8906 37.2188 41.8984 39.625 39.9141 41.375C37.9297 43.125 35.125 44 31.5 44H19.6641ZM24.1641 28.0391V40.3203H31.5938C33.6875 40.3203 35.3359 39.7812 36.5391 38.7031C37.7578 37.6094 38.3672 36.1094 38.3672 34.2031C38.3672 30.0938 36.1328 28.0391 31.6641 28.0391H24.1641ZM24.1641 24.4297H30.9609C32.9297 24.4297 34.5 23.9375 35.6719 22.9531C36.8594 21.9688 37.4531 20.6328 37.4531 18.9453C37.4531 17.0703 36.9062 15.7109 35.8125 14.8672C34.7188 14.0078 33.0547 13.5781 30.8203 13.5781H24.1641V24.4297Z" fill="#4A4A4A"/>
<path d="M5.29102 51.125V52.6602H6.47461V53.498H5.29102V57.4297C5.29102 57.6836 5.34375 57.875 5.44922 58.0039C5.55469 58.1289 5.73438 58.1914 5.98828 58.1914C6.11328 58.1914 6.28516 58.168 6.50391 58.1211V59C6.21875 59.0781 5.94141 59.1172 5.67188 59.1172C5.1875 59.1172 4.82227 58.9707 4.57617 58.6777C4.33008 58.3848 4.20703 57.9688 4.20703 57.4297V53.498H3.05273V52.6602H4.20703V51.125H5.29102ZM11.6602 59C11.5977 58.875 11.5469 58.6523 11.5078 58.332C11.0039 58.8555 10.4023 59.1172 9.70312 59.1172C9.07812 59.1172 8.56445 58.9414 8.16211 58.5898C7.76367 58.2344 7.56445 57.7852 7.56445 57.2422C7.56445 56.582 7.81445 56.0703 8.31445 55.707C8.81836 55.3398 9.52539 55.1562 10.4355 55.1562H11.4902V54.6582C11.4902 54.2793 11.377 53.9785 11.1504 53.7559C10.9238 53.5293 10.5898 53.416 10.1484 53.416C9.76172 53.416 9.4375 53.5137 9.17578 53.709C8.91406 53.9043 8.7832 54.1406 8.7832 54.418H7.69336C7.69336 54.1016 7.80469 53.7969 8.02734 53.5039C8.25391 53.207 8.55859 52.9727 8.94141 52.8008C9.32812 52.6289 9.75195 52.543 10.2129 52.543C10.9434 52.543 11.5156 52.7266 11.9297 53.0938C12.3438 53.457 12.5586 53.959 12.5742 54.5996V57.5176C12.5742 58.0996 12.6484 58.5625 12.7969 58.9062V59H11.6602ZM9.86133 58.1738C10.2012 58.1738 10.5234 58.0859 10.8281 57.9102C11.1328 57.7344 11.3535 57.5059 11.4902 57.2246V55.9238H10.6406C9.3125 55.9238 8.64844 56.3125 8.64844 57.0898C8.64844 57.4297 8.76172 57.6953 8.98828 57.8867C9.21484 58.0781 9.50586 58.1738 9.86133 58.1738ZM17.9648 57.3184C17.9648 57.0254 17.8535 56.7988 17.6309 56.6387C17.4121 56.4746 17.0273 56.334 16.4766 56.2168C15.9297 56.0996 15.4941 55.959 15.1699 55.7949C14.8496 55.6309 14.6113 55.4355 14.4551 55.209C14.3027 54.9824 14.2266 54.7129 14.2266 54.4004C14.2266 53.8809 14.4453 53.4414 14.8828 53.082C15.3242 52.7227 15.8867 52.543 16.5703 52.543C17.2891 52.543 17.8711 52.7285 18.3164 53.0996C18.7656 53.4707 18.9902 53.9453 18.9902 54.5234H17.9004C17.9004 54.2266 17.7734 53.9707 17.5195 53.7559C17.2695 53.541 16.9531 53.4336 16.5703 53.4336C16.1758 53.4336 15.8672 53.5195 15.6445 53.6914C15.4219 53.8633 15.3105 54.0879 15.3105 54.3652C15.3105 54.627 15.4141 54.8242 15.6211 54.957C15.8281 55.0898 16.2012 55.2168 16.7402 55.3379C17.2832 55.459 17.7227 55.6035 18.0586 55.7715C18.3945 55.9395 18.6426 56.1426 18.8027 56.3809C18.9668 56.6152 19.0488 56.9023 19.0488 57.2422C19.0488 57.8086 18.8223 58.2637 18.3691 58.6074C17.916 58.9473 17.3281 59.1172 16.6055 59.1172C16.0977 59.1172 15.6484 59.0273 15.2578 58.8477C14.8672 58.668 14.5605 58.418 14.3379 58.0977C14.1191 57.7734 14.0098 57.4238 14.0098 57.0488H15.0938C15.1133 57.4121 15.2578 57.7012 15.5273 57.916C15.8008 58.127 16.1602 58.2324 16.6055 58.2324C17.0156 58.2324 17.3438 58.1504 17.5898 57.9863C17.8398 57.8184 17.9648 57.5957 17.9648 57.3184ZM22.2305 56.0645L21.5508 56.7734V59H20.4668V50H21.5508V55.4434L22.1309 54.7461L24.1055 52.6602H25.4238L22.957 55.3086L25.7109 59H24.4395L22.2305 56.0645ZM26.7129 59V50.4688H29.502C30.4277 50.4688 31.123 50.6602 31.5879 51.043C32.0566 51.4258 32.291 51.9922 32.291 52.7422C32.291 53.1406 32.1777 53.4941 31.9512 53.8027C31.7246 54.1074 31.416 54.3438 31.0254 54.5117C31.4863 54.6406 31.8496 54.8867 32.1152 55.25C32.3848 55.6094 32.5195 56.0391 32.5195 56.5391C32.5195 57.3047 32.2715 57.9062 31.7754 58.3438C31.2793 58.7812 30.5781 59 29.6719 59H26.7129ZM27.8379 55.0098V58.0801H29.6953C30.2188 58.0801 30.6309 57.9453 30.9316 57.6758C31.2363 57.4023 31.3887 57.0273 31.3887 56.5508C31.3887 55.5234 30.8301 55.0098 29.7129 55.0098H27.8379ZM27.8379 54.1074H29.5371C30.0293 54.1074 30.4219 53.9844 30.7148 53.7383C31.0117 53.4922 31.1602 53.1582 31.1602 52.7363C31.1602 52.2676 31.0234 51.9277 30.75 51.7168C30.4766 51.502 30.0605 51.3945 29.502 51.3945H27.8379V54.1074ZM33.7324 55.7715C33.7324 55.1504 33.8535 54.5918 34.0957 54.0957C34.3418 53.5996 34.6816 53.2168 35.1152 52.9473C35.5527 52.6777 36.0508 52.543 36.6094 52.543C37.4727 52.543 38.1699 52.8418 38.7012 53.4395C39.2363 54.0371 39.5039 54.832 39.5039 55.8242V55.9004C39.5039 56.5176 39.3848 57.0723 39.1465 57.5645C38.9121 58.0527 38.5742 58.4336 38.1328 58.707C37.6953 58.9805 37.1914 59.1172 36.6211 59.1172C35.7617 59.1172 35.0645 58.8184 34.5293 58.2207C33.998 57.623 33.7324 56.832 33.7324 55.8477V55.7715ZM34.8223 55.9004C34.8223 56.6035 34.9844 57.168 35.3086 57.5938C35.6367 58.0195 36.0742 58.2324 36.6211 58.2324C37.1719 58.2324 37.6094 58.0176 37.9336 57.5879C38.2578 57.1543 38.4199 56.5488 38.4199 55.7715C38.4199 55.0762 38.2539 54.5137 37.9219 54.084C37.5938 53.6504 37.1562 53.4336 36.6094 53.4336C36.0742 53.4336 35.6426 53.6465 35.3145 54.0723C34.9863 54.498 34.8223 55.1074 34.8223 55.9004ZM40.5762 55.7715C40.5762 55.1504 40.6973 54.5918 40.9395 54.0957C41.1855 53.5996 41.5254 53.2168 41.959 52.9473C42.3965 52.6777 42.8945 52.543 43.4531 52.543C44.3164 52.543 45.0137 52.8418 45.5449 53.4395C46.0801 54.0371 46.3477 54.832 46.3477 55.8242V55.9004C46.3477 56.5176 46.2285 57.0723 45.9902 57.5645C45.7559 58.0527 45.418 58.4336 44.9766 58.707C44.5391 58.9805 44.0352 59.1172 43.4648 59.1172C42.6055 59.1172 41.9082 58.8184 41.373 58.2207C40.8418 57.623 40.5762 56.832 40.5762 55.8477V55.7715ZM41.666 55.9004C41.666 56.6035 41.8281 57.168 42.1523 57.5938C42.4805 58.0195 42.918 58.2324 43.4648 58.2324C44.0156 58.2324 44.4531 58.0176 44.7773 57.5879C45.1016 57.1543 45.2637 56.5488 45.2637 55.7715C45.2637 55.0762 45.0977 54.5137 44.7656 54.084C44.4375 53.6504 44 53.4336 43.4531 53.4336C42.918 53.4336 42.4863 53.6465 42.1582 54.0723C41.8301 54.498 41.666 55.1074 41.666 55.9004ZM49.4766 56.0645L48.7969 56.7734V59H47.7129V50H48.7969V55.4434L49.377 54.7461L51.3516 52.6602H52.6699L50.2031 55.3086L52.957 59H51.6855L49.4766 56.0645Z" fill="black"/>
</svg>
